<svg width="156" height="32" viewBox="0 0 156 32" fill="none" xmlns="http://www.w3.org/2000/svg">
  <rect width="32" height="32" rx="8" fill="#28A36C"/>
  <path d="M8 11C8 9.89543 8.89543 9 10 9H22C23.1046 9 24 9.89543 24 11V21C24 22.1046 23.1046 23 22 23H10C8.89543 23 8 22.1046 8 21V11Z" fill="#0B1D15"/>
  <path d="M12 13H18V15.5H15.5V21H12V13Z" fill="white"/>
  <path d="M18.5 13H22V21H18.5V13Z" fill="white"/>
  <path d="M10 18.5H16.5V21H10V18.5Z" fill="#B6FFD9"/>
  <path d="M44.4 22V10.84H51.248C52.832 10.84 54.0533 11.192 54.912 11.896C55.7707 12.5893 56.2 13.5813 56.2 14.872C56.2 15.752 55.9947 16.4933 55.584 17.096C55.184 17.688 54.624 18.1307 53.904 18.424L56.488 22H53.44L51.224 18.92H47.24V22H44.4ZM47.24 16.672H50.84C51.528 16.672 52.056 16.5227 52.424 16.224C52.8027 15.9147 52.992 15.4827 52.992 14.928C52.992 14.3733 52.8027 13.9467 52.424 13.648C52.056 13.3387 51.528 13.184 50.84 13.184H47.24V16.672Z" fill="white"/>
  <path d="M62.0534 22.192C61.0347 22.192 60.1227 21.9787 59.3174 21.552C58.512 21.1147 57.8774 20.512 57.4134 19.744C56.96 18.9653 56.7334 18.08 56.7334 17.088C56.7334 16.096 56.9654 15.216 57.4294 14.448C57.8934 13.6693 58.528 13.0667 59.3334 12.64C60.1494 12.2027 61.072 11.984 62.1014 11.984C63.1307 11.984 64.048 12.2027 64.8534 12.64C65.6694 13.0667 66.304 13.6693 66.7574 14.448C67.2214 15.216 67.4534 16.096 67.4534 17.088C67.4534 18.08 67.2214 18.9653 66.7574 19.744C66.2934 20.512 65.6534 21.1147 64.8374 21.552C64.032 21.9787 63.104 22.192 62.0534 22.192ZM62.1014 19.888C62.608 19.888 63.056 19.7707 63.4454 19.536C63.8347 19.3013 64.1387 18.976 64.3574 18.56C64.576 18.1333 64.6854 17.6427 64.6854 17.088C64.6854 16.5333 64.576 16.048 64.3574 15.632C64.1494 15.2053 63.8507 14.8747 63.4614 14.64C63.072 14.4053 62.624 14.288 62.1174 14.288C61.6214 14.288 61.1787 14.4053 60.7894 14.64C60.4 14.8747 60.096 15.2053 59.8774 15.632C59.6587 16.048 59.5494 16.5333 59.5494 17.088C59.5494 17.6427 59.6587 18.1333 59.8774 18.56C60.096 18.976 60.3947 19.3013 60.7734 19.536C61.1627 19.7707 61.6054 19.888 62.1014 19.888Z" fill="white"/>
  <path d="M72.8301 22.192C71.9554 22.192 71.1181 22.064 70.3181 21.808C69.5287 21.552 68.8567 21.1947 68.3021 20.736L69.4301 18.784C69.9207 19.1573 70.4861 19.456 71.1261 19.68C71.7767 19.8933 72.4167 20 73.0461 20C73.5901 20 73.9901 19.9253 74.2461 19.776C74.5021 19.616 74.6301 19.3973 74.6301 19.12C74.6301 18.8533 74.4914 18.6613 74.2141 18.544C73.9367 18.4267 73.4781 18.32 72.8381 18.224L72.0781 18.112C70.8887 17.9413 70.0034 17.616 69.4221 17.136C68.8514 16.6453 68.5661 15.9733 68.5661 15.12C68.5661 14.4213 68.7634 13.8133 69.1581 13.296C69.5634 12.7787 70.1181 12.3787 70.8221 12.096C71.5261 11.8133 72.3421 11.672 73.2701 11.672C74.0167 11.672 74.7367 11.7733 75.4301 11.976C76.1234 12.1787 76.7101 12.4667 77.1901 12.84L76.0781 14.768C75.6621 14.4693 75.1821 14.2293 74.6381 14.048C74.1047 13.8667 73.5714 13.776 73.0381 13.776C72.4834 13.776 72.0621 13.856 71.7741 14.016C71.4861 14.1653 71.3421 14.384 71.3421 14.672C71.3421 14.9173 71.4487 15.1093 71.6621 15.248C71.8861 15.3867 72.2487 15.4933 72.7501 15.568L73.5101 15.68C74.9554 15.8933 75.9794 16.2293 76.5821 16.688C77.1954 17.1467 77.5021 17.8133 77.5021 18.688C77.5021 19.728 77.0967 20.5493 76.2861 21.152C75.4754 21.7547 74.3234 22.096 72.8301 22.176V22.192Z" fill="white"/>
</svg>
